/* XPM */
static char * top_right_inactive_xpm[] = {
"5 29 16 1",
" 	c None",
".	c #D7D2C7",
"+	c #EDE9E5",
"@	c #E3E2DA",
"#	c #E4E3DB",
"$	c #E5E3DC",
"%	c #E4E2DB",
"&	c #E3DED7",
"*	c #E2DCD5",
"=	c #E1DBD3",
"-	c #E0D8D0",
";	c #DFD7CE",
">	c #DFD7CF",
",	c #DED6CE",
"'	c #DBD2CA",
")	c #C4BBB2",
".    ",
"+..  ",
"@@@. ",
"####.",
"$$$$.",
"%%%%.",
"$$$$.",
"$$$$.",
"%%%%.",
"$$$$.",
"%%%%.",
"&&&&.",
"****.",
"====.",
"----.",
";;;;.",
";;;;.",
">>>>.",
">>>>.",
">>>>.",
">>>>.",
">>>>.",
",,,,.",
">>>>.",
",,,,.",
">>>>.",
"----.",
"''''.",
"))))."};
