/* XPM */
static char * top_left_active_xpm[] = {
"10 29 18 1",
" 	c None",
".	c #C9C3B9",
"+	c #F3F1EF",
"@	c #ECEAE4",
"#	c #ECEAE5",
"$	c #ECEAE6",
"%	c #EDEBE6",
"&	c #ECE9E4",
"*	c #E9E5DF",
"=	c #E6E0DA",
"-	c #E2DCD5",
";	c #DFD7D0",
">	c #DED6CE",
",	c #DFD7CF",
"'	c #E0D7CF",
")	c #E1D9D0",
"!	c #DAD1C8",
"~	c #CEC5BC",
"     .....",
"   ..+++++",
"  .@@@@@@@",
" .########",
" .$$$$$$$$",
".#########",
".%%%%%%%%%",
".%%%%%%%%%",
".#########",
".%%%%%%%%%",
".&&&&&&&&&",
".*********",
".=========",
".---------",
".;;;;;;;;;",
".>>>>>>>>>",
".,,,,,,,,,",
".>>>>>>>>>",
".,,,,,,,,,",
".,,,,,,,,,",
".,,,,,,,,,",
".,,,,,,,,,",
".>>>>>>>>>",
".,,,,,,,,,",
".>>>>>>>>>",
".'''''''''",
".)))))))))",
".!!!!!!!!!",
".~~~~~~~~~"};
